# xmcd CD database file
#
# Track frame offsets:
#	150
#	57565
#	174307
#	192784
#	211045
#	234885
#
# Disc length: 3883 seconds
#
# Revision: 0
# Processed by: cddbd v1.5.1PL2 Copyright (c) Steve Scherf et al.
# Submitted via: CDex 1.51
#
DISCID=450f2906
DTITLE=The Vinny Golia Large Ensemble - Portland 1996
DYEAR=1900
DGENRE=Jazz
TTITLE0=Surrounded By Assassins
TTITLE1=Blue Hawk (For Ben, Prez and the Hawk)
TTITLE2=Heighten: Intro
TTITLE3=Heighten: It Aint Easy
TTITLE4=Heighten: Connector
TTITLE5=Heighten: Centerpiece
EXTD=
EXTT0=
EXTT1=
EXTT2=
EXTT3=
EXTT4=
EXTT5=
PLAYORDER=
